<?xml version="1.0" encoding="UTF-8" standalone="no"?>
<svg width="16px" height="13px" viewBox="0 0 16 13" version="1.1" xmlns="http://www.w3.org/2000/svg" xmlns:xlink="http://www.w3.org/1999/xlink">
    <!-- Generator: Sketch 42 (36781) - http://www.bohemiancoding.com/sketch -->
    <title>Group 19</title>
    <desc>Created with Sketch.</desc>
    <defs></defs>
    <g id="Page-1" stroke="none" stroke-width="1" fill="none" fill-rule="evenodd">
        <g id="02-home-menu" transform="translate(-64.000000, -460.000000)">
            <g id="Group-19" transform="translate(63.000000, 457.000000)">
                <rect id="Rectangle-14" x="0" y="0" width="18" height="18"></rect>
                <g id="Page-1" transform="translate(1.000000, 3.545455)" fill="#9B9B9B">
                    <polygon id="Fill-5" points="13.1440364 8.72727273 12.7804 8 3.21967273 8 2.85603636 8.72727273"></polygon>
                    <polygon id="Fill-1" points="13.8713091 10.1818182 13.5076727 9.45454545 2.4924 9.45454545 2.12876364 10.1818182"></polygon>
                    <path d="M0.952036364,10.9090909 L2.77021818,7.27272727 L13.2296727,7.27272727 L15.0478545,10.9090909 L0.952036364,10.9090909 Z M2.90912727,6.54545455 L13.0909455,6.54545455 L13.0909455,0.727272727 L2.90912727,0.727272727 L2.90912727,6.54545455 Z M15.9616727,11.11 L13.8182182,6.82327273 L13.8182182,0.363636364 C13.8182182,0.162909091 13.6553091,0 13.4545818,0 L2.54549091,0 C2.34476364,0 2.18185455,0.162909091 2.18185455,0.363636364 L2.18185455,6.82327273 L0.0384,11.11 C-0.0179636364,11.2227273 -0.0119636364,11.3565455 0.0544,11.4638182 C0.120581818,11.5710909 0.237672727,11.6363636 0.363672727,11.6363636 L15.6364,11.6363636 C15.7624,11.6363636 15.8794909,11.5710909 15.9456727,11.464 C16.0118545,11.3567273 16.0180364,11.2229091 15.9616727,11.11 L15.9616727,11.11 Z" id="Fill-2"></path>
                </g>
            </g>
        </g>
    </g>
</svg>