<?xml version="1.0" encoding="UTF-8" standalone="no"?>
<svg width="10px" height="17px" viewBox="0 0 10 17" version="1.1" xmlns="http://www.w3.org/2000/svg" xmlns:xlink="http://www.w3.org/1999/xlink">
    <!-- Generator: Sketch 42 (36781) - http://www.bohemiancoding.com/sketch -->
    <title>Group 17</title>
    <desc>Created with Sketch.</desc>
    <defs></defs>
    <g id="Page-1" stroke="none" stroke-width="1" fill="none" fill-rule="evenodd">
        <g id="02-home-menu" transform="translate(-67.000000, -369.000000)">
            <g id="Group-16" transform="translate(63.000000, 368.000000)">
                <g id="Group-17">
                    <rect id="Rectangle-11" x="0" y="0" width="18" height="18"></rect>
                    <g id="Page-1" transform="translate(4.000000, 1.361111)" fill="#9B9B9B">
                        <path d="M2.54698901,3.72026374 C2.75815385,3.72026374 2.92940659,3.54848352 2.92940659,3.33679121 L2.92940659,2.43762637 C2.92940659,2.22593407 2.75815385,2.05415385 2.54698901,2.05415385 C2.33582418,2.05415385 2.16457143,2.22593407 2.16457143,2.43762637 L2.16457143,3.33679121 C2.16457143,3.54865934 2.33582418,3.72026374 2.54698901,3.72026374" id="Fill-1"></path>
                        <path d="M4.6661978,3.72026374 C4.87736264,3.72026374 5.04861538,3.54848352 5.04861538,3.33679121 L5.04861538,2.43762637 C5.04861538,2.22593407 4.87736264,2.05415385 4.6661978,2.05415385 C4.45503297,2.05415385 4.28378022,2.22593407 4.28378022,2.43762637 L4.28378022,3.33679121 C4.28395604,3.54865934 4.45520879,3.72026374 4.6661978,3.72026374" id="Fill-3"></path>
                        <path d="M6.78575824,3.72026374 C6.99692308,3.72026374 7.16835165,3.54848352 7.16835165,3.33679121 L7.16835165,2.43762637 C7.16835165,2.22593407 6.99692308,2.05415385 6.78575824,2.05415385 C6.57459341,2.05415385 6.40334066,2.22593407 6.40334066,2.43762637 L6.40334066,3.33679121 C6.40334066,3.54865934 6.57459341,3.72026374 6.78575824,3.72026374" id="Fill-5"></path>
                        <path d="M2.54698901,6.07156044 C2.75815385,6.07156044 2.92940659,5.89978022 2.92940659,5.68808791 L2.92940659,4.78927473 C2.92940659,4.57758242 2.75815385,4.4058022 2.54698901,4.4058022 C2.33582418,4.4058022 2.16457143,4.57758242 2.16457143,4.78927473 L2.16457143,5.68808791 C2.16457143,5.89978022 2.33582418,6.07156044 2.54698901,6.07156044" id="Fill-7"></path>
                        <path d="M4.6661978,6.07156044 C4.87736264,6.07156044 5.04861538,5.89978022 5.04861538,5.68808791 L5.04861538,4.78927473 C5.04861538,4.57758242 4.87736264,4.4058022 4.6661978,4.4058022 C4.45503297,4.4058022 4.28378022,4.57758242 4.28378022,4.78927473 L4.28378022,5.68808791 C4.28395604,5.89978022 4.45520879,6.07156044 4.6661978,6.07156044" id="Fill-9"></path>
                        <path d="M6.78575824,6.07156044 C6.99692308,6.07156044 7.16835165,5.89978022 7.16835165,5.68808791 L7.16835165,4.78927473 C7.16835165,4.57758242 6.99692308,4.4058022 6.78575824,4.4058022 C6.57459341,4.4058022 6.40334066,4.57758242 6.40334066,4.78927473 L6.40334066,5.68808791 C6.40334066,5.89978022 6.57459341,6.07156044 6.78575824,6.07156044" id="Fill-11"></path>
                        <path d="M2.54698901,8.42268132 C2.75815385,8.42268132 2.92940659,8.25072527 2.92940659,8.03920879 L2.92940659,7.14004396 C2.92940659,6.92817582 2.75815385,6.75657143 2.54698901,6.75657143 C2.33582418,6.75657143 2.16457143,6.92835165 2.16457143,7.14004396 L2.16457143,8.03920879 C2.16457143,8.25072527 2.33582418,8.42268132 2.54698901,8.42268132" id="Fill-13"></path>
                        <path d="M4.6661978,8.42268132 C4.87736264,8.42268132 5.04861538,8.25072527 5.04861538,8.03920879 L5.04861538,7.14004396 C5.04861538,6.92817582 4.87736264,6.75657143 4.6661978,6.75657143 C4.45503297,6.75657143 4.28378022,6.92835165 4.28378022,7.14004396 L4.28378022,8.03920879 C4.28395604,8.25072527 4.45520879,8.42268132 4.6661978,8.42268132" id="Fill-15"></path>
                        <path d="M6.78575824,8.42268132 C6.99692308,8.42268132 7.16835165,8.25072527 7.16835165,8.03920879 L7.16835165,7.14004396 C7.16835165,6.92817582 6.99692308,6.75657143 6.78575824,6.75657143 C6.57459341,6.75657143 6.40334066,6.92835165 6.40334066,7.14004396 L6.40334066,8.03920879 C6.40334066,8.25072527 6.57459341,8.42268132 6.78575824,8.42268132" id="Fill-17"></path>
                        <path d="M2.54698901,10.773978 C2.75815385,10.773978 2.92940659,10.602022 2.92940659,10.3903297 L2.92940659,9.49151648 C2.92940659,9.27982418 2.75815385,9.10804396 2.54698901,9.10804396 C2.33582418,9.10804396 2.16457143,9.27982418 2.16457143,9.49151648 L2.16457143,10.3903297 C2.16457143,10.602022 2.33582418,10.773978 2.54698901,10.773978" id="Fill-19"></path>
                        <path d="M4.6661978,10.773978 C4.87736264,10.773978 5.04861538,10.602022 5.04861538,10.3903297 L5.04861538,9.49151648 C5.04861538,9.27982418 4.87736264,9.10804396 4.6661978,9.10804396 C4.45503297,9.10804396 4.28378022,9.27982418 4.28378022,9.49151648 L4.28378022,10.3903297 C4.28395604,10.602022 4.45520879,10.773978 4.6661978,10.773978" id="Fill-21"></path>
                        <path d="M6.78575824,10.773978 C6.99692308,10.773978 7.16835165,10.602022 7.16835165,10.3903297 L7.16835165,9.49151648 C7.16835165,9.27982418 6.99692308,9.10804396 6.78575824,9.10804396 C6.57459341,9.10804396 6.40334066,9.27982418 6.40334066,9.49151648 L6.40334066,10.3903297 C6.40334066,10.602022 6.57459341,10.773978 6.78575824,10.773978" id="Fill-23"></path>
                        <path d="M8.46945055,15.0007912 L5.77424176,15.0014945 L5.77424176,13.184 C5.77424176,12.9018022 5.54567033,12.6727033 5.26435165,12.6727033 L4.1767033,12.6727033 C3.89538462,12.6727033 3.66681319,12.9018022 3.66681319,13.184 L3.66681319,15.0007912 L0.862945055,15.0007912 L0.862417582,0.894945055 L8.46962637,0.893714286 L8.46962637,15.0007912 L8.46945055,15.0007912 Z M8.47103297,0 L0.862417582,0 C0.386813187,0 0,0.388043956 0,0.864703297 L0,15.031033 C0,15.5075165 0.386813187,15.8953846 0.862417582,15.8953846 L8.47103297,15.8953846 C8.94593407,15.8953846 9.33221978,15.5075165 9.33221978,15.031033 L9.33221978,0.864879121 C9.33221978,0.388043956 8.94593407,0 8.47103297,0 L8.47103297,0 Z" id="Fill-25"></path>
                    </g>
                </g>
            </g>
        </g>
    </g>
</svg>