<?xml version="1.0" encoding="UTF-8" standalone="no"?>
<svg width="11px" height="16px" viewBox="0 0 11 16" version="1.1" xmlns="http://www.w3.org/2000/svg" xmlns:xlink="http://www.w3.org/1999/xlink">
    <!-- Generator: Sketch 42 (36781) - http://www.bohemiancoding.com/sketch -->
    <title>Group 13</title>
    <desc>Created with Sketch.</desc>
    <defs></defs>
    <g id="Page-1" stroke="none" stroke-width="1" fill="none" fill-rule="evenodd">
        <g id="02-home-menu" transform="translate(-67.000000, -241.000000)">
            <g id="Group-13" transform="translate(63.000000, 240.000000)">
                <rect id="Rectangle-8" x="0" y="0" width="18" height="18"></rect>
                <path d="M9.45510204,1.44897959 C8.87142857,1.44897959 8.37755102,1.94285714 8.37755102,2.52653061 C8.37755102,3.11020408 8.87142857,3.60408163 9.45510204,3.60408163 C10.0387755,3.60408163 10.5326531,3.11020408 10.5326531,2.52653061 C10.5326531,1.94285714 10.0387755,1.44897959 9.45510204,1.44897959 M9.45510204,1 C10.3081633,1 10.9816327,1.69591837 10.9816327,2.52653061 C10.9816327,3.37959184 10.2857143,4.05306122 9.45510204,4.05306122 C8.60204082,4.05306122 7.92857143,3.35714286 7.92857143,2.52653061 C7.92857143,1.69591837 8.60204082,1 9.45510204,1 M14.5510204,7.8244898 C14.5510204,7.66734694 14.4387755,7.51020408 14.3040816,7.46530612 L14.2367347,7.44285714 C12.5081633,6.76938776 11.4755102,5.84897959 10.9142857,5.1755102 C10.8918367,5.15306122 10.6673469,4.86122449 10.2408163,4.86122449 L8.82653061,4.86122449 C8.37755102,4.86122449 8.13061224,5.1755102 8.13061224,5.1755102 C7.54693878,5.84897959 6.51428571,6.79183673 4.78571429,7.46530612 L4.71836735,7.4877551 C4.56122449,7.55510204 4.44897959,7.68979592 4.44897959,7.84693878 C4.44897959,7.98163265 4.49387755,8.13877551 4.78571429,8.13877551 C4.85306122,8.13877551 4.89795918,8.11632653 4.96530612,8.09387755 C5.03265306,8.07142857 5.05510204,8.04897959 5.05510204,8.04897959 C5.07755102,8.04897959 5.88571429,7.66734694 6.15510204,7.53265306 C6.4244898,7.3755102 7.5244898,6.70204082 7.54693878,6.70204082 L7.56938776,6.67959184 L7.61428571,6.67959184 C7.77142857,6.65714286 7.90612245,6.67959184 8.01836735,6.79183673 C8.15306122,6.94897959 8.15306122,7.17346939 8.15306122,7.28571429 L8.15306122,7.30816327 L8.15306122,12.8530612 C8.15306122,13.055102 8.31020408,13.2122449 8.5122449,13.2122449 L8.66938776,13.2122449 C8.87142857,13.2122449 9.02857143,13.055102 9.02857143,12.8530612 L9.02857143,11.5061224 C9.02857143,11.1918367 9.14081633,11.0571429 9.3877551,11.0122449 L9.41020408,11.0122449 L9.52244898,11.0122449 L9.58979592,11.0122449 C9.83673469,11.0122449 9.97142857,11.1918367 9.97142857,11.3714286 L9.97142857,15.7714286 L9.97142857,15.8612245 L9.97142857,15.9285714 C9.97142857,16.1306122 10.1285714,16.2877551 10.3306122,16.2877551 L10.577551,16.2877551 C10.622449,16.2877551 10.644898,16.2877551 10.7346939,16.2204082 C10.9367347,16.1081633 10.8918367,15.8387755 10.8918367,15.8387755 L10.8918367,15.8163265 L10.8918367,7.33061224 L10.8918367,7.30816327 C10.8918367,7.19591837 10.8693878,6.97142857 11.0265306,6.81428571 C11.1163265,6.7244898 11.2734694,6.67959184 11.4306122,6.70204082 L11.4755102,6.70204082 L11.4979592,6.7244898 C11.4979592,6.7244898 12.5979592,7.39795918 12.8897959,7.55510204 C13.1367347,7.68979592 13.9673469,8.07142857 13.9673469,8.07142857 C13.9897959,8.07142857 14.0122449,8.09387755 14.0571429,8.11632653 C14.1244898,8.16122449 14.1918367,8.16122449 14.2591837,8.16122449 C14.5061224,8.11632653 14.5510204,7.95918367 14.5510204,7.8244898 M15,7.8244898 C15,8.27346939 14.6857143,8.56530612 14.2142857,8.56530612 C14.0795918,8.56530612 13.944898,8.54285714 13.8326531,8.4755102 L13.7428571,8.43061224 C13.7204082,8.43061224 12.9122449,8.07142857 12.6428571,7.91428571 C12.3959184,7.77959184 11.5877551,7.28571429 11.3183673,7.12857143 L11.3183673,7.24081633 L11.3183673,7.28571429 L11.3183673,15.7489796 C11.3408163,15.9734694 11.2959184,16.355102 10.9367347,16.5571429 C10.8469388,16.6244898 10.7346939,16.6918367 10.555102,16.6918367 L10.3081633,16.6918367 C9.85918367,16.6918367 9.5,16.3326531 9.5,15.8836735 L9.5,15.8612245 L9.5,15.7489796 L9.5,11.4163265 L9.45510204,11.4163265 L9.45510204,11.4612245 L9.45510204,12.8081633 C9.45510204,13.2571429 9.09591837,13.6163265 8.64693878,13.6163265 L8.48979592,13.6163265 C8.04081633,13.6163265 7.68163265,13.2571429 7.68163265,12.8081633 L7.70408163,7.21836735 L7.70408163,7.10612245 C7.43469388,7.26326531 6.62653061,7.75714286 6.37959184,7.89183673 C6.11020408,8.04897959 5.3244898,8.38571429 5.27959184,8.40816327 L5.18979592,8.45306122 C5.07755102,8.52040816 4.94285714,8.54285714 4.80816327,8.54285714 C4.33673469,8.54285714 4.02244898,8.25102041 4.02244898,7.80204082 C4.02244898,7.46530612 4.24693878,7.15102041 4.56122449,7.01632653 L4.62857143,6.99387755 C6.26734694,6.36530612 7.25510204,5.48979592 7.77142857,4.83877551 C7.77142857,4.83877551 8.13061224,4.34489796 8.80408163,4.34489796 L10.2183673,4.34489796 C10.8918367,4.34489796 11.2510204,4.81632653 11.2734694,4.83877551 C11.7897959,5.46734694 12.777551,6.34285714 14.4163265,6.97142857 L14.4836735,6.99387755 C14.7755102,7.15102041 15,7.46530612 15,7.8244898 M11.9693878,15.7489796 C13.7653061,14.6714286 14.8877551,12.5836735 14.8877551,10.2714286 C14.8877551,9.84489796 14.8428571,9.41836735 14.7755102,8.99183673 C14.7530612,8.87959184 14.6408163,8.78979592 14.5061224,8.8122449 C14.3938776,8.83469388 14.3040816,8.94693878 14.3265306,9.08163265 C14.3938776,9.46326531 14.4387755,9.86734694 14.4387755,10.2714286 C14.4387755,12.4265306 13.4061224,14.3795918 11.744898,15.3673469 C11.6326531,15.4346939 11.6102041,15.5693878 11.677551,15.6816327 C11.722449,15.7489796 11.7897959,15.7938776 11.8795918,15.7938776 C11.9020408,15.7938776 11.9244898,15.7714286 11.9693878,15.7489796 M9.00612245,16.444898 C8.98367347,16.444898 8.98367347,16.444898 9.00612245,16.444898 C6.2,16.1755102 4,13.4591837 4,10.2714286 C4,9.84489796 4.04489796,9.44081633 4.1122449,9.03673469 C4.13469388,8.9244898 4.24693878,8.83469388 4.38163265,8.85714286 C4.49387755,8.87959184 4.58367347,8.99183673 4.56122449,9.12653061 C4.49387755,9.50816327 4.44897959,9.88979592 4.44897959,10.2938776 C4.44897959,13.2571429 6.44693878,15.7714286 9.00612245,16.0183673 C9.11836735,16.0408163 9.23061224,16.1306122 9.20816327,16.2653061 C9.20816327,16.355102 9.11836735,16.444898 9.00612245,16.444898" id="Page-1" fill="#9B9B9B"></path>
            </g>
        </g>
    </g>
</svg>