<?xml version="1.0" encoding="UTF-8" standalone="no"?>
<svg width="14px" height="15px" viewBox="0 0 14 15" version="1.1" xmlns="http://www.w3.org/2000/svg" xmlns:xlink="http://www.w3.org/1999/xlink">
    <!-- Generator: Sketch 42 (36781) - http://www.bohemiancoding.com/sketch -->
    <title>Group 12</title>
    <desc>Created with Sketch.</desc>
    <defs>
        <polygon id="path-1" points="0 14 13.9733725 14 13.9733725 0.0258039216 0 0.0258039216"></polygon>
    </defs>
    <g id="Page-1" stroke="none" stroke-width="1" fill="none" fill-rule="evenodd">
        <g id="02-home-menu" transform="translate(-65.000000, -198.000000)">
            <g id="Group-12" transform="translate(63.000000, 197.000000)">
                <rect id="Rectangle-7" x="0" y="0" width="18" height="18"></rect>
                <g id="Page-1" transform="translate(2.000000, 1.352941)">
                    <g id="Group-7" transform="translate(0.000000, 0.248761)">
                        <mask id="mask-2" fill="white">
                            <use xlink:href="#path-1"></use>
                        </mask>
                        <g id="Clip-6"></g>
                        <path d="M4.55782353,8.66490196 C4.4504902,8.55756863 4.277,8.55756863 4.16966667,8.66490196 L1.06413725,11.7707059 C0.956803922,11.8780392 0.956803922,12.0515294 1.06413725,12.1588627 C1.11766667,12.2123922 1.18794118,12.2392941 1.25821569,12.2392941 C1.3284902,12.2392941 1.39876471,12.2123922 1.45229412,12.1588627 L4.55782353,9.05305882 C4.66515686,8.94572549 4.66515686,8.77196078 4.55782353,8.66490196" id="Fill-1" fill="#9B9B9B" mask="url(#mask-2)"></path>
                        <path d="M4.94598039,9.44121569 L1.84045098,12.5470196 C1.73311765,12.6543529 1.73311765,12.8278431 1.84045098,12.9351765 C1.89398039,12.9887059 1.9642549,13.0156078 2.03452941,13.0156078 C2.10480392,13.0156078 2.17507843,12.9887059 2.22860784,12.9351765 L5.33413725,9.82937255 C5.44147059,9.72203922 5.44147059,9.54854902 5.33413725,9.44121569 C5.22680392,9.33388235 5.05331373,9.33388235 4.94598039,9.44121569" id="Fill-3" fill="#9B9B9B" mask="url(#mask-2)"></path>
                        <path d="M13.3868824,11.1236863 L12.6179804,10.3547843 C12.5488039,10.2853333 12.4483333,10.2576078 12.3528039,10.2836863 L10.8528824,10.6855686 C10.7581765,10.711098 10.6843333,10.7849412 10.6588039,10.8796471 L10.2569216,12.3795686 C10.2313922,12.4742745 10.2585686,12.5752941 10.3280196,12.6447451 L11.0971961,13.4139216 C10.3897843,13.4633333 9.68676471,13.2077647 9.177,12.698 C8.48331373,12.0043137 8.26645098,10.9644706 8.62468627,10.0492549 C8.6644902,9.94768627 8.64033333,9.83239216 8.56292157,9.7552549 L6.98586275,8.17819608 L8.15088235,7.01290196 L9.72794118,8.58996078 C9.80535294,8.66737255 9.92037255,8.69180392 10.0222157,8.65145098 C10.9371569,8.29321569 11.9772745,8.50980392 12.6706863,9.20403922 C13.180451,9.71352941 13.4360196,10.4173725 13.3868824,11.1236863 L13.3868824,11.1236863 Z M5.52821569,10.4116078 L2.81056863,13.1292549 C2.39605882,13.5443137 1.67272549,13.5443137 1.25794118,13.1292549 L0.869509804,12.741098 C0.44127451,12.3128627 0.44127451,11.6158824 0.869509804,11.1879216 L3.58743137,8.47082353 C3.79468627,8.26329412 4.07029412,8.14909804 4.3637451,8.14909804 C4.65719608,8.14909804 4.93280392,8.26329412 5.14005882,8.47082353 L5.52821569,8.85898039 C5.7357451,9.0665098 5.84994118,9.34239216 5.84994118,9.63556863 C5.84994118,9.9287451 5.7357451,10.2043529 5.52821569,10.4116078 L5.52821569,10.4116078 Z M11.1754314,2.43545098 C11.2270392,2.38384314 11.2558627,2.31411765 11.2558627,2.24137255 L11.2558627,1.57870588 L12.146098,0.688745098 L13.3108431,1.85321569 L12.4206078,2.74345098 L11.7579412,2.74345098 C11.6849216,2.74345098 11.6151961,2.77227451 11.5638627,2.82388235 L5.91692157,8.47082353 L5.5284902,8.08266667 L11.1754314,2.43545098 Z M4.24460784,5.43584314 C4.1677451,5.35870588 4.05162745,5.33427451 3.95033333,5.37435294 C3.03594118,5.73286275 1.99582353,5.51627451 1.30158824,4.82231373 C0.792098039,4.31254902 0.536529412,3.60870588 0.585666667,2.90266667 L1.35429412,3.67129412 C1.42347059,3.7407451 1.52503922,3.76792157 1.61947059,3.74239216 L3.11966667,3.34023529 C3.21437255,3.31498039 3.2884902,3.24086275 3.3137451,3.14615686 L3.71562745,1.6465098 C3.74115686,1.55180392 3.71398039,1.45078431 3.64452941,1.38133333 L2.87562745,0.612156863 C3.58056863,0.561647059 4.28578431,0.818313725 4.79554902,1.32807843 C5.4895098,2.02176471 5.70637255,3.06160784 5.35005882,3.97188235 C5.27978431,4.14152941 5.27978431,4.14152941 6.29464706,5.15639216 L6.98641176,5.84815686 L5.82166667,7.01290196 L4.24460784,5.43584314 Z M9.99339216,8.07909804 L8.53903922,6.6247451 L11.8715882,3.29247059 L12.5342549,3.29247059 C12.6072745,3.29247059 12.677,3.26364706 12.7283333,3.21203922 L13.8930784,2.04729412 C13.9446863,1.99568627 13.9735098,1.92596078 13.9735098,1.85321569 C13.9735098,1.78047059 13.9446863,1.71047059 13.8930784,1.65913725 L12.3401765,0.106235294 C12.2328431,-0.00109803922 12.0593529,-0.00109803922 11.9520196,0.106235294 L10.7872745,1.27070588 C10.7356667,1.32231373 10.7068431,1.39203922 10.7068431,1.46478431 L10.7068431,2.12745098 L7.37456863,5.46 C7.00864706,5.09380392 6.22327451,4.30843137 5.9204902,4.00564706 C6.26884314,2.93066667 5.98911765,1.74478431 5.18370588,0.939921569 C4.41507843,0.171019608 3.28492157,-0.124627451 2.23437255,0.16827451 C2.1404902,0.194627451 2.06747059,0.268745098 2.04276471,0.362901961 C2.01805882,0.457058824 2.04523529,0.557803922 2.11413725,0.626980392 L3.14437255,1.65721569 L2.82456863,2.85078431 L1.63045098,3.17086275 L0.600490196,2.14090196 C0.531588235,2.07172549 0.431117647,2.04454902 0.336960784,2.06952941 C0.242529412,2.09423529 0.168411765,2.1672549 0.142333333,2.26141176 C-0.150843137,3.31141176 0.144803922,4.44129412 0.913431373,5.21047059 C1.71856863,6.01560784 2.90445098,6.29505882 3.97915686,5.94698039 L5.43323529,7.40133333 L5.07280392,7.76176471 C4.85401961,7.65717647 4.61354902,7.60007843 4.3637451,7.60007843 C3.92370588,7.60007843 3.51029412,7.77137255 3.19927451,8.08266667 L0.481352941,10.7997647 C-0.16045098,11.4421176 -0.16045098,12.486902 0.481352941,13.1292549 L0.869784314,13.5174118 C1.18080392,13.8287059 1.5944902,14 2.03452941,14 C2.47456863,14 2.88798039,13.8287059 3.199,13.5174118 L5.91637255,10.7997647 C6.22766667,10.4890196 6.39896078,10.0753333 6.39896078,9.63556863 C6.39896078,9.38576471 6.34186275,9.14529412 6.23727451,8.9265098 L6.59770588,8.56607843 L8.05205882,10.0204314 C7.70370588,11.0954118 7.98370588,12.2810196 8.78884314,13.0861569 C9.36147059,13.6587843 10.1339412,13.9689804 10.9250784,13.9689804 C11.1962941,13.9689804 11.4699804,13.9324706 11.7381765,13.8575294 C11.8323333,13.8311765 11.9050784,13.7573333 11.9297843,13.662902 C11.9547647,13.5684706 11.9273137,13.468 11.8584118,13.399098 L10.8281765,12.3688627 L11.1479804,11.1750196 L12.3418235,10.8552157 L13.3720588,11.885451 C13.4409608,11.9546275 13.5414314,11.9820784 13.6358627,11.9568235 C13.7302941,11.9321176 13.8044118,11.8593725 13.8304902,11.7652157 C14.1233922,10.7152157 13.8277451,9.58505882 13.0588431,8.81615686 C12.2539804,8.01047059 11.0678235,7.73047059 9.99339216,8.07909804 L9.99339216,8.07909804 Z" id="Fill-5" fill="#9B9B9B" mask="url(#mask-2)"></path>
                    </g>
                </g>
            </g>
        </g>
    </g>
</svg>