<?xml version="1.0" encoding="UTF-8" standalone="no"?>
<svg width="14px" height="15px" viewBox="0 0 14 15" version="1.1" xmlns="http://www.w3.org/2000/svg" xmlns:xlink="http://www.w3.org/1999/xlink">
    <!-- Generator: Sketch 42 (36781) - http://www.bohemiancoding.com/sketch -->
    <title>Group 18</title>
    <desc>Created with Sketch.</desc>
    <defs></defs>
    <g id="Page-1" stroke="none" stroke-width="1" fill="none" fill-rule="evenodd">
        <g id="02-home-menu" transform="translate(-65.000000, -413.000000)">
            <g id="Group-18" transform="translate(63.000000, 411.000000)">
                <rect id="Rectangle-12" x="0" y="0" width="18" height="18"></rect>
                <path d="M14.7272727,15.3636364 L3.27272727,15.3636364 L3.27272727,13.1363636 C3.27272727,12.2737727 4.76245455,11.0322273 6.94104545,10.5158182 C7.5335,10.9584091 8.22936364,11.2272727 9,11.2272727 C9.77063636,11.2272727 10.4658636,10.9580909 11.0589545,10.5158182 C13.2378636,11.0322273 14.7272727,12.2737727 14.7272727,13.1363636 L14.7272727,15.3636364 Z M9,3.27272727 C10.5791364,3.27272727 11.8636364,4.55722727 11.8636364,6.13636364 C11.8636364,8.09890909 10.4715909,9.95454545 9,9.95454545 C7.52809091,9.95454545 6.13636364,8.09890909 6.13636364,6.13636364 C6.13636364,4.55722727 7.42118182,3.27272727 9,3.27272727 L9,3.27272727 Z M12.0599545,9.47154545 C12.7399091,8.51509091 13.1363636,7.29518182 13.1363636,6.13636364 C13.1363636,3.85563636 11.2807273,2 9,2 C6.71927273,2 4.86363636,3.85563636 4.86363636,6.13636364 C4.86363636,7.2955 5.26009091,8.51540909 5.94004545,9.47154545 C3.63131818,10.2008182 2,11.6692273 2,13.1363636 L2,15.3636364 C2,16.0655455 2.57081818,16.6363636 3.27272727,16.6363636 L14.7272727,16.6363636 C15.4288636,16.6363636 16,16.0655455 16,15.3636364 L16,13.1363636 C16,11.6692273 14.3686818,10.2008182 12.0599545,9.47154545 L12.0599545,9.47154545 Z" id="Page-1" fill="#9B9B9B"></path>
            </g>
        </g>
    </g>
</svg>