<?xml version="1.0" encoding="UTF-8" standalone="no"?>
<svg width="15px" height="16px" viewBox="0 0 15 16" version="1.1" xmlns="http://www.w3.org/2000/svg" xmlns:xlink="http://www.w3.org/1999/xlink">
    <!-- Generator: Sketch 42 (36781) - http://www.bohemiancoding.com/sketch -->
    <title>Group 15</title>
    <desc>Created with Sketch.</desc>
    <defs></defs>
    <g id="Page-1" stroke="none" stroke-width="1" fill="none" fill-rule="evenodd">
        <g id="02-home-menu" transform="translate(-66.000000, -327.000000)">
            <g id="Group-15" transform="translate(64.000000, 325.000000)">
                <rect id="Rectangle-10" x="0" y="0" width="18" height="18"></rect>
                <g id="Page-1" transform="translate(2.000000, 2.000000)" fill="#9B9B9B">
                    <path d="M11.4405511,1.21235795 C8.81555114,-0.389914773 6.07123295,-0.424005682 3.44623295,1.22940341 C1.00873295,2.76349432 -0.0651306818,5.08167614 0.00305113636,8.11576705 C1.58827841,7.12713068 2.21896023,5.64417614 2.79850568,4.09303977 C3.22464205,4.9453125 3.22464205,5.28622159 2.79850568,6.78622159 C4.31555114,6.53053977 5.40646023,5.76349432 5.95191477,4.24644886 C6.51441477,5.03053977 6.54850568,5.84872159 6.41214205,6.73508523 C7.79282386,6.37713068 8.62805114,5.5078125 9.10532386,4.22940341 C9.17350568,4.24644886 9.2416875,4.26349432 9.29282386,4.26349432 C9.36100568,4.97940341 9.41214205,5.71235795 9.48032386,6.49644886 C10.8269148,6.37713068 11.6450966,5.54190341 12.1053239,4.1953125 C13.2644148,7.24644886 13.7757784,7.9453125 14.9348693,7.97940341 C15.0541875,5.06463068 13.946233,2.72940341 11.4405511,1.21235795" id="Fill-1"></path>
                    <path d="M7.72464205,14.2521307 C4.38373295,14.2862216 2.28714205,12.4794034 1.26441477,9.32599432 C0.940551136,9.39417614 0.650778409,9.4453125 0.309869318,9.51349432 C0.770096591,12.462358 3.68486932,15.2578125 7.43486932,15.3430398 C10.8269148,15.4112216 14.2019148,12.7009943 14.696233,9.53053977 C14.3723693,9.46235795 14.0485057,9.39417614 13.724642,9.34303977 C12.7189602,12.6328125 10.2473693,14.2350852 7.72464205,14.2521307" id="Fill-3"></path>
                    <path d="M5.01441477,10.0930398 C4.89509659,9.95667614 4.3666875,10.399858 4.48600568,10.553267 C5.23600568,11.5589489 6.22464205,12.1384943 7.50305114,12.1725852 C8.64509659,12.1725852 9.92350568,11.5078125 10.5200966,10.553267 C10.6223693,10.3828125 10.1280511,9.93963068 9.9916875,10.0759943 C8.44055114,11.7634943 6.56555114,11.7634943 5.01441477,10.0930398" id="Fill-5"></path>
                    <path d="M4.99736932,7.1953125 C4.60532386,7.21235795 4.34964205,7.45099432 4.3666875,7.86008523 C4.3666875,8.30326705 4.62236932,8.52485795 5.01441477,8.55894886 C5.47464205,8.52485795 5.73032386,8.26917614 5.71327841,7.86008523 C5.69623295,7.45099432 5.42350568,7.17826705 4.99736932,7.1953125" id="Fill-7"></path>
                    <path d="M10.6223693,7.86008523 C10.6223693,7.45099432 10.3666875,7.21235795 9.97464205,7.1953125 C9.54850568,7.17826705 9.27577841,7.43394886 9.27577841,7.86008523 C9.27577841,8.28622159 9.51441477,8.52485795 9.9916875,8.55894886 C10.383733,8.52485795 10.6394148,8.30326705 10.6223693,7.86008523" id="Fill-9"></path>
                </g>
            </g>
        </g>
    </g>
</svg>