<?xml version="1.0" encoding="UTF-8" standalone="no"?>
<svg width="13px" height="14px" viewBox="0 0 13 14" version="1.1" xmlns="http://www.w3.org/2000/svg" xmlns:xlink="http://www.w3.org/1999/xlink">
    <!-- Generator: Sketch 42 (36781) - http://www.bohemiancoding.com/sketch -->
    <title>Group 14</title>
    <desc>Created with Sketch.</desc>
    <defs></defs>
    <g id="Page-1" stroke="none" stroke-width="1" fill="none" fill-rule="evenodd">
        <g id="02-home-menu" transform="translate(-66.000000, -284.000000)">
            <g id="Group-10" transform="translate(46.000000, 269.000000)">
                <g id="Group-14" transform="translate(17.000000, 13.000000)">
                    <rect id="Rectangle-9" x="0" y="0" width="18" height="18"></rect>
                    <path d="M9.50000309,3.02012967 L15.0930237,7.21489512 L15.0930237,14.9999263 L11.9186066,14.9999263 L11.9186066,11.6743465 C11.9186066,10.3423006 10.832049,9.25574299 9.50000309,9.25574299 C8.16795721,9.25574299 7.08139959,10.3423006 7.08139959,11.6743465 L7.08139959,14.9999263 L3.90698249,14.9999263 L3.90698249,7.21489512 L9.50000309,3.02012967 Z M3.17943633,6.62445354 C3.06787824,6.70910466 2.99925037,6.8480232 3.00000618,6.98815104 L3.00000618,15.4534145 C3.00000618,15.6908911 3.2160177,15.9069026 3.45349434,15.9069026 L7.53488774,15.9069026 C7.77236438,15.9069026 7.9883759,15.6908911 7.9883759,15.4534145 L7.9883759,11.6743465 C7.9883759,10.8290446 8.65470117,10.1627193 9.50000309,10.1627193 C10.345305,10.1627193 11.0116303,10.8290446 11.0116303,11.6743465 L11.0116303,15.4534145 C11.0116303,15.6908911 11.2276418,15.9069026 11.4651184,15.9069026 L15.5465118,15.9069026 C15.7839885,15.9069026 16,15.6908911 16,15.4534145 L16,6.98815104 C16,6.8480232 15.9321279,6.70925583 15.8204187,6.62445354 L9.77390994,2.08957198 C9.57603794,1.96380459 9.41081709,1.97665342 9.22609624,2.08957198 L3.17943633,6.62445354 Z" id="Fill-1" fill="#9B9B9B"></path>
                </g>
            </g>
        </g>
    </g>
</svg>