<?xml version="1.0" encoding="UTF-8" standalone="no"?>
<svg width="15px" height="15px" viewBox="0 0 15 15" version="1.1" xmlns="http://www.w3.org/2000/svg" xmlns:xlink="http://www.w3.org/1999/xlink">
    <!-- Generator: Sketch 42 (36781) - http://www.bohemiancoding.com/sketch -->
    <title>Group 11</title>
    <desc>Created with Sketch.</desc>
    <defs></defs>
    <g id="Page-1" stroke="none" stroke-width="1" fill="none" fill-rule="evenodd">
        <g id="02-home-menu" transform="translate(-65.000000, -155.000000)">
            <g id="Group-11" transform="translate(63.000000, 154.000000)">
                <rect id="Rectangle-2" x="0" y="0" width="18" height="18"></rect>
                <path d="M15.8986262,12.6073307 L8.23334734,9.35047303 C7.83177649,9.17921488 7.57488926,8.78945493 7.57488926,8.35245136 C7.57488926,7.75600054 8.05913646,7.26880061 8.67330364,7.26880061 L15.5885899,7.36033514 C16.4773607,9.71661116 16.0787426,12.0846981 15.8986262,12.6073307 M13.5925466,14.3140069 C13.3858557,14.3140069 4.81113693,13.404567 4.81113693,13.404567 C3.57394438,11.8071418 2.9154863,10.2421965 2.84166813,8.73630585 L3.73339163,8.73630585 C3.96370433,8.73630585 4.14972612,8.55028406 4.14972612,8.31997136 C4.14972612,8.08965867 3.96370433,7.90363688 3.73339163,7.90363688 L2.86233721,7.90363688 C2.86528994,7.8622987 2.84462085,7.729426 3.00997356,7.07096791 L4.77570421,7.07096791 C5.0060169,7.07096791 5.19203869,6.88494612 5.19203869,6.65463343 C5.19203869,6.42432073 5.0060169,6.23829894 4.77570421,6.23829894 L3.29048261,6.23829894 C3.9164607,4.76488825 4.97058418,3.9233611 4.994206,3.90564473 C6.08671493,2.99915759 7.32981293,2.54148493 8.68806728,2.54148493 C11.4547723,2.54148493 14.0325029,4.47847374 15.1899718,6.52471344 L8.68216182,6.43908437 L8.65558728,6.43908437 C7.59851107,6.43908437 6.73926756,7.29832788 6.73926756,8.35540409 C6.73926756,9.12606579 7.19694022,9.8199566 7.90559466,10.1211347 L15.5236299,13.3573234 C14.9448955,14.1781814 14.0886047,14.3140069 13.5925466,14.3140069 M16.2293316,6.73140432 C14.9773755,3.86135383 11.7470923,1.70291051 8.68806728,1.70291051 C7.1290275,1.70291051 5.70581316,2.22554316 4.47157334,3.25013938 C4.38889699,3.31805209 2.38399547,4.89776095 2.04738461,7.67037146 C1.79640282,9.74023298 2.54344272,11.8898181 4.26488246,14.0630251 C4.33574791,14.1516069 4.43614062,14.2077087 4.54834424,14.2195196 C4.54834424,14.2195196 13.3474702,15.1496286 13.5925466,15.1496286 C16.8080661,15.1496286 16.9999933,11.7658036 16.9999933,10.723491 C16.9999933,8.28158592 16.2352371,6.7402625 16.2293316,6.73140432" id="Page-1" fill="#9B9B9B"></path>
            </g>
        </g>
    </g>
</svg>